<svg width="622" height="271" viewBox="0 0 622 271" fill="none" xmlns="http://www.w3.org/2000/svg">
<path d="M93.168 211.02C82.3947 211.02 74.2473 207.99 68.726 201.93C63.2047 195.735 60.444 186.915 60.444 175.468V167.388H81.452V177.084C81.452 186.241 85.29 190.82 92.966 190.82C96.7367 190.82 99.5647 189.743 101.45 187.588C103.47 185.299 104.48 181.663 104.48 176.68C104.48 170.755 103.133 165.57 100.44 161.126C97.7467 156.547 92.764 151.093 85.492 144.764C76.3347 136.684 69.938 129.412 66.302 122.948C62.666 116.349 60.848 108.943 60.848 100.728C60.848 89.5507 63.676 80.932 69.332 74.872C74.988 68.6773 83.2027 65.58 93.976 65.58C104.615 65.58 112.627 68.6773 118.014 74.872C123.535 80.932 126.296 89.6853 126.296 101.132V106.99H105.288V99.718C105.288 94.87 104.345 91.3687 102.46 89.214C100.575 86.9247 97.814 85.78 94.178 85.78C86.7713 85.78 83.068 90.2913 83.068 99.314C83.068 104.431 84.4147 109.212 87.108 113.656C89.936 118.1 94.986 123.487 102.258 129.816C111.55 137.896 117.947 145.235 121.448 151.834C124.949 158.433 126.7 166.176 126.7 175.064C126.7 186.645 123.805 195.533 118.014 201.728C112.358 207.923 104.076 211.02 93.168 211.02ZM134.188 67.6H155.6L165.498 176.276H165.902L176.406 67.6H200.646L211.15 176.276H211.554L221.452 67.6H240.642L226.3 209H198.626L188.526 113.656H188.122L178.022 209H148.53L134.188 67.6Z" fill="#F3CA40"/>
<path d="M458.282 68.6H491.006C502.049 68.6 510.331 71.5627 515.852 77.488C521.373 83.4133 524.134 92.0993 524.134 103.546V117.484C524.134 128.931 521.373 137.617 515.852 143.542C510.331 149.467 502.049 152.43 491.006 152.43H480.502V210H458.282V68.6ZM491.006 132.23C494.642 132.23 497.335 131.22 499.086 129.2C500.971 127.18 501.914 123.746 501.914 118.898V102.132C501.914 97.284 500.971 93.85 499.086 91.83C497.335 89.81 494.642 88.8 491.006 88.8H480.502V132.23H491.006ZM536.202 68.6H558.422V210H536.202V68.6Z" fill="#F3CA40"/>
<g clip-path="url(#clip0_2_3)">
<path d="M247 209L294.059 138.5L247 68H282.294L329.353 138.5L282.294 209" fill="#666666"/>
<path d="M407.784 167.875L392.098 144.375H447V167.875" fill="#666666"/>
<path d="M384.255 132.625L368.569 109.125H447V132.625" fill="#666666"/>
<path d="M294.059 209L341.118 138.5L294.059 68H329.353L423.471 209H388.176L358.765 164.937L329.353 209" fill="#999999"/>
</g>
<defs>
<clipPath id="clip0_2_3">
<rect width="200" height="141" fill="white" transform="translate(247 68)"/>
</clipPath>
</defs>
</svg>
